<?xml version="1.0" encoding="UTF-8"?>
<svg id="_Слой_1" data-name="Слой 1" xmlns="http://www.w3.org/2000/svg" viewBox="0 0 25 25">
  <defs>
    <style>
      .cls-1 {
        fill: #ff7a50;
      }
    </style>
  </defs>
  <path class="cls-1" d="M5.09,24.05c-.22,0-.41-.08-.56-.23-.15-.15-.23-.34-.23-.56V1.77c0-.24,.07-.44,.2-.59,.15-.15,.35-.23,.59-.23h14.52c.24,0,.44,.08,.59,.23,.15,.15,.23,.35,.23,.59V3.95c0,.24-.08,.44-.23,.59-.15,.13-.35,.2-.59,.2H8.75v5.84h10.13c.24,0,.44,.08,.59,.23,.15,.13,.23,.32,.23,.56v2.05c0,.24-.08,.44-.23,.59-.15,.13-.35,.2-.59,.2H8.75v6.04h11.12c.24,0,.44,.08,.59,.23,.15,.15,.23,.35,.23,.59v2.18c0,.24-.08,.44-.23,.59-.15,.13-.35,.2-.59,.2H5.09Z"/>
</svg>