<?xml version="1.0" standalone="no"?>
<!DOCTYPE svg PUBLIC "-//W3C//DTD SVG 20010904//EN"
 "http://www.w3.org/TR/2001/REC-SVG-20010904/DTD/svg10.dtd">
<svg version="1.0" xmlns="http://www.w3.org/2000/svg"
 width="700.000000pt" height="700.000000pt" viewBox="0 0 700.000000 700.000000"
 preserveAspectRatio="xMidYMid meet">
<metadata>
Created by potrace 1.14, written by Peter Selinger 2001-2017
</metadata>
<g transform="translate(0.000000,700.000000) scale(0.100000,-0.100000)"
fill="#000000" stroke="none">
<path d="M1379 6729 c-61 -9 -115 -48 -146 -103 l-28 -51 0 -3058 c0 -2455 2
-3066 12 -3101 15 -50 71 -112 120 -133 45 -18 4260 -20 4314 -1 73 25 121 81
135 155 9 49 9 676 0 724 -9 51 -58 114 -108 141 l-43 23 -1592 3 -1593 2 0
845 0 845 788 0 c433 0 1075 0 1427 0 449 0 656 4 693 12 68 15 125 68 145
133 10 34 13 128 12 378 -1 321 -2 333 -23 374 -21 40 -58 74 -112 104 -21 12
-265 14 -1470 16 -795 1 -1448 2 -1452 2 -5 1 -8 368 -8 816 l0 815 38 1 c20
0 721 1 1557 2 l1520 2 42 22 c51 28 87 74 102 130 8 27 11 163 11 390 -1 323
-3 351 -21 387 -27 56 -57 85 -109 109 -45 21 -49 21 -2111 21 -1136 1 -2081
-1 -2100 -5z"/>
</g>
</svg>
