<?xml version="1.0" encoding="utf-8"?><svg xmlns="http://www.w3.org/2000/svg" xmlns:xlink="http://www.w3.org/1999/xlink"><symbol viewBox="0 0 24 24" id="arrow-button" xmlns="http://www.w3.org/2000/svg"><path d="M13.121 6.293a1 1 0 0 0 0 1.414L16.413 11 6 11.007a1 1 0 0 0 0 2L16.414 13l-3.293 3.293a1 1 0 1 0 1.414 1.414l3.586-3.585a3 3 0 0 0 0-4.243l-3.586-3.586a1 1 0 0 0-1.414 0Z"/></symbol><symbol viewBox="0 0 34 34" id="arrow-next" xmlns="http://www.w3.org/2000/svg"><g clip-path="url(#aba)"><path d="M34 17c0-9.374-7.626-17-17-17C7.626 0 0 7.626 0 17c0 9.374 7.627 17 17 17 9.373 0 17-7.626 17-17ZM2.634 17C2.634 9.08 9.078 2.634 17 2.634S31.366 9.079 31.366 17c0 7.922-6.444 14.366-14.366 14.366S2.634 24.921 2.634 17Z"/><path d="m15.183 24.519 6.584-6.584c.51-.514.51-1.343 0-1.857l-6.584-6.584a1.316 1.316 0 0 0-1.857 1.857L18.976 17l-5.65 5.662a1.316 1.316 0 0 0 0 1.857 1.316 1.316 0 0 0 1.857 0Z"/></g><defs><clipPath id="aba"><path transform="rotate(90 17 17)" d="M0 0h34v34H0z"/></clipPath></defs></symbol><symbol viewBox="0 0 34 34" id="arrow-prev" xmlns="http://www.w3.org/2000/svg"><g clip-path="url(#aca)"><path d="M0 17C0 7.626 7.626 0 17 0c9.374 0 17 7.626 17 17 0 9.374-7.627 17-17 17-9.373 0-17-7.626-17-17Zm31.366 0c0-7.92-6.444-14.366-14.366-14.366S2.634 9.079 2.634 17c0 7.922 6.444 14.366 14.366 14.366S31.366 24.921 31.366 17Z"/><path d="m18.817 24.519-6.584-6.584a1.316 1.316 0 0 1 0-1.857l6.584-6.584a1.316 1.316 0 0 1 1.857 1.857L15.024 17l5.65 5.662c.51.514.51 1.343 0 1.857a1.316 1.316 0 0 1-1.857 0Z"/></g><defs><clipPath id="aca"><path transform="matrix(0 1 1 0 0 0)" d="M0 0h34v34H0z"/></clipPath></defs></symbol><symbol viewBox="0 0 44 44" id="asian" xmlns="http://www.w3.org/2000/svg"><g clip-path="url(#ada)"><g clip-path="url(#adb)"><path d="M15.132 13.567h2.124c.552 0 1 .448 1 1v1.465a.644.644 0 1 0 1.29 0v-1.465a2.292 2.292 0 0 0-2.29-2.29h-2.124a.984.984 0 0 1 0-1.965h4.711a2.275 2.275 0 0 0 2.272-2.273 2.275 2.275 0 0 0-2.272-2.272h-3.77a.645.645 0 0 0 0 1.29h3.77a.984.984 0 0 1 0 1.965h-4.711a2.275 2.275 0 0 0-2.273 2.272 2.275 2.275 0 0 0 2.273 2.273ZM7.389 17.892h2.108c.544 0 .987.443.987.988v1.454a.644.644 0 1 0 1.29 0V18.88a2.279 2.279 0 0 0-2.277-2.277H7.39a.972.972 0 0 1 0-1.94h2.465a.645.645 0 1 0 0-1.29H7.389a2.262 2.262 0 0 0-2.26 2.26 2.262 2.262 0 0 0 2.26 2.26ZM25.652 26.813a.645.645 0 1 0 0-1.29.645.645 0 0 0 0 1.29ZM28.832 28.273a.645.645 0 1 0 0-1.289.645.645 0 0 0 0 1.29ZM30.723 30.508a.645.645 0 1 0 0-1.29.645.645 0 0 0 0 1.29ZM28.059 25.266a.644.644 0 1 0 0-1.29.644.644 0 0 0 0 1.29ZM25.91 30.938a.645.645 0 1 0 0-1.29.645.645 0 0 0 0 1.29Z"/><path d="M42.911 22.81h-1.828l.904-1.867A2.507 2.507 0 0 0 44 18.49a2.507 2.507 0 0 0-2.102-2.47c-1.315-2.37-3.885-4.149-7.001-4.86v-.048a.644.644 0 0 0-1.264-.176 13.86 13.86 0 0 0-1.197-.1.644.644 0 0 0-1.163 0c-.405.017-.804.05-1.197.1a.644.644 0 0 0-1.264.176v.049c-3.116.71-5.686 2.49-7.001 4.859a2.506 2.506 0 0 0-2.093 2.685c-2.975.277-5.649 1.52-7.655 3.386h-4.05a.908.908 0 0 0-.69.318H5.43a2.118 2.118 0 0 0-1.957-1.337 2.106 2.106 0 0 0-2.082 2.397 2.107 2.107 0 0 0-1.066 3.104 2.106 2.106 0 0 0 1.778 3.229c.878 0 1.648-.554 1.958-1.337h1.704a.91.91 0 0 0 .586.623l2.02.686a10.897 10.897 0 0 0-.002 1.223c-.316.076-.61.207-.873.383a2.701 2.701 0 0 0-1.51-.46 2.721 2.721 0 0 0-2.717 2.719l.002.068h-.754c-.426 0-.803.24-.985.624a1.08 1.08 0 0 0 .144 1.156l1.934 2.35c.207.252.514.397.84.397h27.26a.644.644 0 1 0 0-1.29H4.545l-1.604-1.948h39.544l-1.603 1.949h-6.164a.645.645 0 1 0 0 1.289h6.258c.327 0 .633-.145.84-.397l1.934-2.35a1.08 1.08 0 0 0 .144-1.156 1.079 1.079 0 0 0-.984-.624h-.638a5.411 5.411 0 0 0 .64-3.671.645.645 0 0 0-.52-.52 5.409 5.409 0 0 0-5.008 1.731c-.37-.2-.79-.316-1.237-.325v-1.226h.688c1.09 0 1.977-.887 1.977-1.977v-.865h4.1c.6 0 1.088-.488 1.088-1.088v-1.866c0-.6-.488-1.088-1.089-1.088ZM6.291 33.707H4.56l-.002-.068a1.43 1.43 0 0 1 2.053-1.284 2.7 2.7 0 0 0-.323 1.284c0 .023.002.045.003.068Zm32.225-1.784a4.117 4.117 0 0 1 3.184-1.195 4.118 4.118 0 0 1-1.005 2.98h-1.063l.881-.881a.645.645 0 1 0-.911-.912l-.914.913a2.71 2.71 0 0 0-.348-.717c.057-.064.115-.127.176-.188Zm-13.013-17.98a10.714 10.714 0 0 1 3.309-1.452v.663a.644.644 0 1 0 1.29 0v-.918c.364-.053.735-.087 1.108-.106v1.024a.645.645 0 0 0 1.289 0V12.13c.373.02.743.054 1.109.106v.918a.645.645 0 0 0 1.289 0v-.663c1.206.308 2.333.799 3.309 1.452.95.637 1.724 1.406 2.288 2.256a2.526 2.526 0 0 0-.604.375 2.506 2.506 0 0 0-1.607-.587c-.595 0-1.163.215-1.607.587a2.506 2.506 0 0 0-1.607-.587c-.595 0-1.163.215-1.607.587a2.506 2.506 0 0 0-1.608-.587c-.594 0-1.162.215-1.607.587a2.506 2.506 0 0 0-1.607-.587c-.594 0-1.162.215-1.607.587a2.506 2.506 0 0 0-1.607-.587c-.594 0-1.162.215-1.607.587a2.524 2.524 0 0 0-.605-.375c.565-.85 1.339-1.62 2.29-2.256Zm-3.291 3.333c.43 0 .832.233 1.05.607a.645.645 0 0 0 1.114 0c.217-.374.62-.607 1.05-.607.43 0 .832.233 1.05.607a.645.645 0 0 0 1.115 0c.217-.374.619-.607 1.05-.607.43 0 .832.233 1.049.607a.645.645 0 0 0 1.115 0c.217-.374.62-.607 1.05-.607.43 0 .832.233 1.049.607a.645.645 0 0 0 1.115 0c.217-.374.62-.607 1.05-.607.43 0 .832.233 1.05.607a.645.645 0 0 0 1.114 0c.217-.374.62-.607 1.05-.607.43 0 .832.233 1.05.607a.645.645 0 0 0 1.114 0c.218-.374.62-.607 1.05-.607a1.215 1.215 0 0 1 0 2.427c-.43 0-.832-.232-1.05-.607a.645.645 0 0 0-1.114 0c-.218.375-.62.608-1.05.608-.43 0-.833-.233-1.05-.608a.645.645 0 0 0-1.115 0c-.217.375-.62.608-1.05.608-.43 0-.832-.233-1.049-.608a.645.645 0 0 0-1.115 0c-.217.375-.62.608-1.05.608-.43 0-.832-.233-1.05-.608a.645.645 0 0 0-1.114 0c-.218.375-.62.608-1.05.608-.43 0-.832-.233-1.05-.608a.645.645 0 0 0-1.114 0 1.22 1.22 0 0 1-.54.493 13.366 13.366 0 0 0-4.927-.942 1.215 1.215 0 0 1 1.202-1.37ZM8.392 23.38h2.472a11.78 11.78 0 0 0-.712.983h-1.76v-.983Zm-2.66 3.796H3.558a.644.644 0 0 0-.643.59.818.818 0 0 1-.81.747.815.815 0 0 1-.519-1.443.645.645 0 0 0 0-.993.815.815 0 0 1 .519-1.443c.42 0 .776.327.81.746a.644.644 0 0 0 .643.59h2.176v1.206Zm.221-2.494H4.061a2.129 2.129 0 0 0-1.36-1.248.813.813 0 1 1 1.583-.327.645.645 0 0 0 .642.591h2.177v.665h-.46a.909.909 0 0 0-.69.319Zm4.48 9.025H7.58a1.43 1.43 0 0 1 1.427-1.497 1.43 1.43 0 0 1 1.428 1.429l-.002.068Zm19.879 0h-2.244l-.002-.068a1.43 1.43 0 0 1 2.439-1.01 2.704 2.704 0 0 0-.196 1.01c0 .023.002.045.003.068Zm-.817-2.786a2.721 2.721 0 0 0-2.719 2.718c0 .023.002.045.003.068H11.722l.002-.068c0-1.273-.88-2.344-2.063-2.638a9.734 9.734 0 0 1-.016-.795l6.592 2.239a4.113 4.113 0 0 0 3.753-.556 4.106 4.106 0 0 0 1.732-3.375c0-.484-.083-.96-.247-1.413a.645.645 0 0 0-1.212.44c.113.311.17.639.17.973a2.83 2.83 0 0 1-1.195 2.327 2.83 2.83 0 0 1-2.587.383l-9.629-3.27v-2.302h10.55c.323 0 .641.055.946.162a.644.644 0 1 0 .427-1.217 4.142 4.142 0 0 0-1.373-.234h-5.845c2.056-2.676 5.438-4.428 9.256-4.428 6.253 0 11.34 4.696 11.34 10.468 0 .206-.006.412-.02.616-.389.108-.743.3-1.042.556a2.705 2.705 0 0 0-1.766-.654Zm4.959 2.786h-2.853a1.43 1.43 0 0 1 1.427-1.497c.787 0 1.428.64 1.428 1.429 0 .023 0 .046-.002.068Zm.404-2.486a2.72 2.72 0 0 0-.297.175 2.706 2.706 0 0 0-.964-.413 10.977 10.977 0 0 0-.01-1.287h1.271v1.525Zm2.665 2.418c0 .023-.002.045-.003.068h-1.777l.002-.068a2.7 2.7 0 0 0-.313-1.266 1.43 1.43 0 0 1 2.09 1.265Zm0-5.92c0 .38-.309.688-.688.688h-3.407c-.098-.53-.232-1.05-.404-1.553h4.499v.865Zm5.188-2.154H32.493a11.526 11.526 0 0 0-.853-1.464h2.735a.644.644 0 1 0 0-1.29h-3.756a12.413 12.413 0 0 0-2.077-1.82 2.46 2.46 0 0 0 1.705-.586 2.507 2.507 0 0 0 1.607.588c.595 0 1.163-.215 1.608-.588a2.506 2.506 0 0 0 1.607.588c.594 0 1.162-.215 1.607-.588a2.506 2.506 0 0 0 1.607.588c.594 0 1.162-.215 1.607-.588.215.18.459.323.72.423l-.96 1.984h-2.267a.644.644 0 1 0 0 1.289h5.328v1.464Z"/></g></g><defs><clipPath id="ada"><path d="M0 0h44v44H0z"/></clipPath><clipPath id="adb"><path d="M0 0h44v44H0z"/></clipPath></defs></symbol><symbol viewBox="0 0 44 44" id="burger" xmlns="http://www.w3.org/2000/svg"><path d="M44 21.996c0-1.69-1.09-3.128-2.602-3.653-.232-5.241-2.189-9.263-5.825-11.966C32.254 3.911 27.688 2.66 22 2.66c-5.688 0-10.254 1.25-13.573 3.717-3.636 2.703-5.593 6.725-5.825 11.966A3.873 3.873 0 0 0 0 21.996c0 .99.374 1.893.988 2.578A3.851 3.851 0 0 0 0 27.152c0 1.7 1.103 3.146 2.63 3.663.553 5.89 5.56 10.517 11.636 10.517h15.468c6.076 0 11.084-4.627 11.636-10.517A3.873 3.873 0 0 0 44 27.152a3.85 3.85 0 0 0-.988-2.578A3.851 3.851 0 0 0 44 21.996ZM22 5.238c7.393 0 16.151 2.28 16.803 12.89H5.197C5.849 7.519 14.607 5.239 22 5.239ZM3.867 20.707h36.266c.71 0 1.289.578 1.289 1.289a1.29 1.29 0 0 1-1.29 1.289H3.868a1.29 1.29 0 0 1-1.289-1.289c0-.71.578-1.29 1.29-1.29Zm25.867 18.047H14.266c-4.581 0-8.383-3.367-9.016-7.735h1.195c.862 0 1.134.294 1.677.878.667.718 1.58 1.7 3.566 1.7 2 0 2.889-.993 3.538-1.718.513-.572.77-.86 1.618-.86.848 0 1.105.288 1.617.86.65.725 1.54 1.718 3.539 1.718 2 0 2.89-.993 3.538-1.718.513-.572.77-.86 1.618-.86.848 0 1.105.288 1.618.86.65.725 1.539 1.718 3.538 1.718 2 0 2.89-.993 3.539-1.718.513-.572.77-.86 1.618-.86h1.281c-.633 4.367-4.435 7.735-9.016 7.735ZM40.133 28.44h-2.664c-2 0-2.89.993-3.539 1.719-.512.572-.77.86-1.617.86-.848 0-1.106-.288-1.618-.86-.65-.726-1.539-1.719-3.539-1.719s-2.889.993-3.538 1.719c-.513.572-.77.86-1.618.86-.848 0-1.105-.288-1.618-.86-.65-.726-1.538-1.719-3.538-1.719-2 0-2.89.993-3.539 1.719-.512.572-.77.86-1.617.86-.862 0-1.135-.294-1.677-.878-.667-.718-1.58-1.7-3.566-1.7H3.867a1.29 1.29 0 0 1-1.289-1.29c0-.71.578-1.289 1.29-1.289h36.265a1.29 1.29 0 0 1 0 2.578Z"/><path d="M14.266 15.55a1.29 1.29 0 1 0 0-2.578 1.29 1.29 0 0 0 0 2.579Zm15.468 0a1.29 1.29 0 1 0 0-2.577 1.29 1.29 0 0 0 0 2.578Zm-5.156-2.577a1.289 1.289 0 1 0 0-2.579 1.289 1.289 0 0 0 0 2.579Zm-5.156-2.579a1.289 1.289 0 1 0 0-2.578 1.289 1.289 0 0 0 0 2.578Z"/></symbol><symbol viewBox="0 0 24 24" id="call" xmlns="http://www.w3.org/2000/svg"><path fill-rule="evenodd" clip-rule="evenodd" d="M14.358 2.667a.75.75 0 0 1 .828-.662 8.72 8.72 0 0 1 7.702 7.693.75.75 0 1 1-1.49.168 7.22 7.22 0 0 0-6.378-6.37.75.75 0 0 1-.662-.829Z"/><path fill-rule="evenodd" clip-rule="evenodd" d="M14.367 6.15a.75.75 0 0 1 .879-.593 5.177 5.177 0 0 1 4.093 4.093.75.75 0 0 1-1.472.287 3.677 3.677 0 0 0-2.907-2.908.75.75 0 0 1-.593-.879ZM4.373 5.045a2.27 2.27 0 0 1-.12.124l-.003.003c-.043.042-.084.082-.13.13a2.26 2.26 0 0 0-.29.372c-.184.3-.367.764-.324 1.475.09 1.466 1.153 4.086 5.459 8.39 4.305 4.305 6.924 5.366 8.39 5.455.71.043 1.174-.14 1.473-.325a2.27 2.27 0 0 0 .373-.29l.13-.13.003-.003.008-.008c.024-.025.068-.07.116-.113.748-.75 1.17-1.29 1.379-1.7.195-.38.184-.6.125-.78-.078-.234-.278-.517-.697-.946-.202-.207-.435-.43-.704-.686L19.546 16a47.38 47.38 0 0 1-.86-.834M4.372 5.046c.753-.75 1.294-1.172 1.704-1.382.382-.195.6-.184.779-.125.234.078.517.279.945.698.208.203.43.436.686.705l.005.006c.252.265.532.56.843.87.526.527.597.87.59 1.123-.004.155-.04.326-.106.544a9.955 9.955 0 0 1-.116.347l-.014.038c-.04.112-.082.236-.123.362-.187.577-.355 1.301-.138 2.183.212.866.77 1.786 1.823 2.839s1.973 1.61 2.84 1.822c.881.216 1.605.048 2.182-.14.126-.04.25-.083.362-.123l.038-.013c.126-.044.238-.083.347-.116.218-.068.389-.103.543-.107.252-.007.596.064 1.122.59M9.575 3.909c.254.267.523.55.82.848.744.744 1.05 1.466 1.03 2.222-.01.35-.088.67-.173.946-.042.138-.09.275-.133.4-.005.013-.01.025-.013.038-.04.114-.078.221-.113.33-.15.465-.228.874-.108 1.364.124.505.485 1.194 1.427 2.135.941.941 1.63 1.303 2.135 1.426.49.12.899.042 1.364-.11.108-.034.214-.071.33-.112l.037-.013c.125-.044.261-.09.4-.134.276-.085.595-.163.945-.173.757-.02 1.479.285 2.222 1.028.295.295.575.561.84.813l.01.01c.264.251.519.493.744.725.438.448.854.94 1.047 1.522.211.637.124 1.275-.214 1.934-.32.628-.882 1.307-1.673 2.097a.803.803 0 0 1-.047.044l-.045.045-.007.007c-.04.041-.097.1-.166.165-.147.14-.35.314-.617.479-.544.336-1.313.609-2.353.546-2.034-.123-4.988-1.52-9.36-5.89-4.372-4.372-5.77-7.326-5.895-9.361-.063-1.04.209-1.809.545-2.353.165-.268.339-.47.479-.618.065-.069.124-.126.165-.167l.007-.006.045-.045a.753.753 0 0 1 .044-.047c.792-.793 1.472-1.355 2.1-1.676.66-.338 1.298-.425 1.935-.213.582.193 1.073.61 1.521 1.048.23.225.47.479.721.742l.004.004Z"/></symbol><symbol viewBox="0 0 24 24" id="cart" xmlns="http://www.w3.org/2000/svg"><path d="M6.75 18.11a2.9 2.9 0 0 1-2.88-2.63L2.78 2.57l-1.9-.33a.75.75 0 0 1-.61-.87.75.75 0 0 1 .87-.61l2.47.42c.34.06.59.34.62.68l.29 3.41c17.1 0 17.16.01 17.22.02.63.09 1.18.42 1.56.92.37.5.53 1.11.44 1.72l-1.13 7.71c-.2 1.4-1.43 2.46-2.86 2.46h-13ZM4.64 6.78l.73 8.57c.06.71.67 1.26 1.39 1.26h12.98c.69 0 1.28-.5 1.38-1.17l1.13-7.71a.804.804 0 0 0-.15-.6.816.816 0 0 0-.56-.33H4.65Z"/><path d="M17.82 11.13h-3.3c-.41 0-.75-.34-.75-.75s.34-.75.75-.75h3.3c.41 0 .75.34.75.75s-.34.75-.75.75ZM6.24 21.44c.36 0 .65.29.65.64s-.29.64-.65.64-.65-.29-.65-.64.29-.64.65-.64Z"/><path d="M6.24 23.47c-.77 0-1.4-.62-1.4-1.39s.63-1.39 1.4-1.39 1.4.62 1.4 1.39-.63 1.39-1.4 1.39Zm0-1.5c-.06 0-.1.05-.1.11 0 .12.21.12.21 0 0-.06-.05-.11-.1-.11ZM19.65 21.44c.36 0 .65.29.65.64s-.29.64-.65.64-.65-.29-.65-.64.29-.64.65-.64Z"/><path d="M19.65 23.47c-.77 0-1.4-.62-1.4-1.39s.63-1.39 1.4-1.39 1.4.62 1.4 1.39-.63 1.39-1.4 1.39Zm0-1.5c-.06 0-.1.05-.1.11 0 .12.21.12.21 0 0-.06-.05-.11-.1-.11Z"/></symbol><symbol fill="none" viewBox="0 0 30 31" id="delivery" xmlns="http://www.w3.org/2000/svg"><g clip-path="url(#aha)"><path d="m5.75 22.797.36.867c.254-.106.518-.183.789-.233l-.168-.922a4.797 4.797 0 0 0-.98.288Z" fill="url(#ahb)"/><path d="m3.288 25.124.844.409a3.846 3.846 0 0 1 1.289-1.496l-.53-.774a4.783 4.783 0 0 0-1.603 1.861Z" fill="url(#ahc)"/><path d="M29.063 24.86c0-.807-.297-1.586-.836-2.187l-.699.625c.277.31.467.687.55 1.094h-3.234a.469.469 0 0 0-.39.208l-1.736 2.604h-1.155v-1.406a3.285 3.285 0 0 1 3.28-3.281h.938c.461-.001.912.135 1.296.39l.519-.78a3.26 3.26 0 0 0-1.346-.514v-1.44a.469.469 0 0 0-.469-.469 1.877 1.877 0 0 1-1.875-1.875v-1.875h1.407a.47.47 0 0 0 .468-.469v-3.28a.469.469 0 0 0-.468-.47h-.827c-.196 0-.391.027-.58.08v-.548a.468.468 0 0 0-.102-.293L22.27 9.056a1.64 1.64 0 1 0-.69.638l1.389 1.737v.592l-2.061-.687a1.262 1.262 0 0 0-.42-.07h-3.866L14.396 8.67A1.405 1.405 0 0 0 15 7.517v-.18l.678-.339a.468.468 0 0 0 .18-.679l-.77-1.155a.469.469 0 0 0 .38-.46 2.815 2.815 0 0 0-2.812-2.812c-.883 0-1.7.253-2.308.925a2.818 2.818 0 0 0-.713 2.167l.1 1.003c.042.432.25.832.578 1.116v8.851c0 .33.086.653.252.938h-.721a1.4 1.4 0 0 0-.469.08v-6.174a1.408 1.408 0 0 0-1.406-1.406H2.344a1.408 1.408 0 0 0-1.406 1.406v2.344h.937v-.938h6.563v4.688H1.875v-2.813H.937v3.828a.937.937 0 0 0 .77.922l4.387.798v1.1c-.398.092-.786.22-1.16.383h-2.59a.469.469 0 0 0-.469.47v2.224a6.658 6.658 0 0 0-.938 3.4.469.469 0 0 0 .47.469h2.148a3.75 3.75 0 0 0 6.953 0h7.881a2.347 2.347 0 0 0 1.734-.767l.502-.552v1.319a.469.469 0 0 0 .469.469h.971a3.75 3.75 0 0 0 6.845-2.936.467.467 0 0 0 .152-.346ZM20.155 8.22a.704.704 0 1 1 1.407 0 .704.704 0 0 1-1.407 0ZM13.45 24.86a1.734 1.734 0 0 1-1.731-1.731c0-.46.116-.89.423-1.245.273-.315.65-.52 1.063-.58A2.09 2.09 0 0 0 15 19.235a.467.467 0 0 0-.137-.331 1.403 1.403 0 0 0 .056-1.075h1.273l-2.056 5.348c-.05.129-.075.266-.073.404v1.28h-.613Zm1.55-.937h2.344a.468.468 0 0 1 .26.858.94.94 0 0 1-.374.08H15v-.938Zm3.638-.082a1.41 1.41 0 0 0-1.068-.838l1.941-4.673a2.733 2.733 0 0 0-2.525-3.782H15v-.743l.137.137a.468.468 0 0 0 .332.137h4.768a1.406 1.406 0 0 0 1.326 1.875c-.305.405-.47.899-.47 1.406v3.637c0 .248-.099.486-.274.663l-2.181 2.18Zm2.924-8.824a.469.469 0 1 1 0-.938.469.469 0 0 1 0 .938Zm3.282-2.344v2.344h-.938v-2.198c.178-.096.378-.146.58-.146h.358Zm-1.875 1.875a1.406 1.406 0 0 0-1.875-1.326v-.836l1.875.625v1.537Zm-6.563-2.344h3.75v.938h-4.493l-2.675-2.676-.663.663 1.738 1.738v1.68H11.25V8.924h2.128l2.672 3.117a.467.467 0 0 0 .356.164Zm-5.363-8.758c.429-.474.998-.617 1.613-.617a1.878 1.878 0 0 1 1.816 1.406h-1.816a.469.469 0 0 0-.469.47v1.112a.762.762 0 0 1-1.519.077l-.1-1.003a1.854 1.854 0 0 1 .475-1.445Zm.383 4.07a1.701 1.701 0 0 0 1.699-1.699v-.644h.938c0 .092.027.183.078.26l.643.964-.463.232a.469.469 0 0 0-.258.419v.469a.47.47 0 0 1-.47.468H11.25v-.478c.058.006.117.01.176.01Zm-.176 8.438v-.469h5.736a1.796 1.796 0 0 1 1.66 2.486l-2.084 5.014h-1.348l2.098-5.456a.469.469 0 0 0-.437-.637h-4.688a.939.939 0 0 1-.937-.938ZM9.844 17.83h3.75a.469.469 0 1 1 0 .938h-3.75a.469.469 0 0 1 0-.938Zm-7.969-6.562v-.47a.47.47 0 0 1 .469-.468h5.625a.47.47 0 0 1 .468.469v.469H1.875Zm0 6.562h6.563v.938H6.604l-4.73-.86v-.078Zm1.517 4.219a6.633 6.633 0 0 0-.58.53v-.53h.58Zm3.64 7.031a2.834 2.834 0 0 1-2.436-1.406h1.196a1.872 1.872 0 0 0 2.478 0h1.196a2.834 2.834 0 0 1-2.435 1.406Zm12.398-2.804a1.408 1.408 0 0 1-1.04.46H1.893A5.71 5.71 0 0 1 6.4 21.62c.121-.026.245-.04.369-.04h3.076v-.937H7.03v-.938h6.932a1.152 1.152 0 0 1-.89.672 2.675 2.675 0 0 0-1.64.894c-.453.522-.652 1.176-.652 1.859 0 .635.227 1.25.64 1.731H7.5v.938h9.73a1.91 1.91 0 0 0 1.326-.55l2.926-2.925c.35-.353.548-.83.55-1.326V17.36a1.41 1.41 0 0 1 .937-1.326v1.795a2.817 2.817 0 0 0 2.343 2.773v.977c-.29 0-.588-.018-.878.02a4.228 4.228 0 0 0-3.697 3.238l-1.307 1.438Zm5.665-.946h.023l.566.566a.529.529 0 0 1 .066.664.525.525 0 0 1-.81.08l-.43-.432.585-.878Zm.218 3.75a2.828 2.828 0 0 1-2.138-.986.467.467 0 0 0 .184-.16l.406-.61a1.874 1.874 0 0 0 3.17-1.994h1.03a2.813 2.813 0 0 1-2.652 3.75Z" fill="url(#ahd)"/><path d="M3.75 13.141h-.938v2.813h.938V13.14Z" fill="url(#ahe)"/></g><defs><linearGradient id="ahb" x1="5.751" y1="23.048" x2="6.871" y2="23.053" gradientUnits="userSpaceOnUse"><stop stop-color="#47C2FF"/><stop offset="1" stop-color="#1CB4FF" stop-opacity=".71"/></linearGradient><linearGradient id="ahc" x1="3.288" y1="24.322" x2="5.37" y2="24.331" gradientUnits="userSpaceOnUse"><stop stop-color="#47C2FF"/><stop offset="1" stop-color="#1CB4FF" stop-opacity=".71"/></linearGradient><linearGradient id="ahd" x1=".938" y1="15.017" x2="28.388" y2="15.139" gradientUnits="userSpaceOnUse"><stop stop-color="#47C2FF"/><stop offset="1" stop-color="#1CB4FF" stop-opacity=".71"/></linearGradient><linearGradient id="ahe" x1="2.813" y1="14.454" x2="3.728" y2="14.455" gradientUnits="userSpaceOnUse"><stop stop-color="#47C2FF"/><stop offset="1" stop-color="#1CB4FF" stop-opacity=".71"/></linearGradient><clipPath id="aha"><path fill="#fff" transform="translate(0 .954)" d="M0 0h30v30H0z"/></clipPath></defs></symbol><symbol viewBox="0 0 44 44" id="dish" xmlns="http://www.w3.org/2000/svg"><g clip-path="url(#aia)"><path d="m31.158 14.83-.47-1.55a3.366 3.366 0 0 0-6.375 0l-.47 1.55a8.704 8.704 0 0 0-.244 4.033 3.794 3.794 0 0 0 1.954 2.643l-.527 11.787c-.07.658.143 1.315.587 1.806a2.561 2.561 0 0 0 3.78 0 2.291 2.291 0 0 0 .587-1.757l-.53-11.837a3.793 3.793 0 0 0 1.95-2.642 8.704 8.704 0 0 0-.242-4.034Zm-1.202 3.778a2.325 2.325 0 0 1-1.522 1.752.733.733 0 0 0-.474.719l.557 12.38a.849.849 0 0 1-.22.664 1.133 1.133 0 0 1-1.594 0 .88.88 0 0 1-.216-.713l.553-12.331a.733.733 0 0 0-.474-.72 2.325 2.325 0 0 1-1.522-1.751 7.231 7.231 0 0 1 .202-3.349l.47-1.55a1.901 1.901 0 0 1 3.568 0l.47 1.55a7.242 7.242 0 0 1 .202 3.349ZM19.8 11a.733.733 0 0 0-.733.733v6.297l-1.986 1.985a.733.733 0 0 0-.214.555l.641 12.833a.999.999 0 0 1-.277.748 1.032 1.032 0 0 1-1.46.006l-.007-.006a.998.998 0 0 1-.277-.748l.646-12.833a.733.733 0 0 0-.214-.555l-1.986-1.985v-6.297a.733.733 0 0 0-1.466 0v6.6c0 .195.077.381.214.519l1.97 1.97-.625 12.51a2.477 2.477 0 1 0 4.948 0l-.625-12.51 1.97-1.97a.733.733 0 0 0 .214-.519v-6.6A.733.733 0 0 0 19.8 11Z"/><path d="M15.4 11a.733.733 0 0 0-.733.733V17.6a.733.733 0 1 0 1.466 0v-5.867A.733.733 0 0 0 15.4 11ZM17.6 11a.733.733 0 0 0-.733.733V17.6a.733.733 0 0 0 1.466 0v-5.867A.733.733 0 0 0 17.6 11Z"/><path d="M22 0C9.85 0 0 9.85 0 22s9.85 22 22 22 22-9.85 22-22C43.986 9.855 34.145.014 22 0Zm0 42.533C10.66 42.533 1.467 33.34 1.467 22 1.467 10.66 10.66 1.467 22 1.467c11.34 0 20.533 9.193 20.533 20.533C42.52 33.335 33.335 42.52 22 42.533Z"/><path d="M24.38 35.766a.733.733 0 0 0-.829-.655l.003-.001a13.46 13.46 0 0 1-3.108 0 .734.734 0 0 0-.17 1.458c1.144.133 2.3.133 3.446 0a.733.733 0 0 0 .658-.802ZM33.22 12.55a.733.733 0 1 0-1.124.946 13.2 13.2 0 0 1-.778 17.854.734.734 0 0 0 1.035 1.04c5.403-5.383 5.78-14.007.867-19.84ZM17.086 9.694h-.004.004ZM25.46 7.743a14.797 14.797 0 0 0-8.633.53.733.733 0 0 0 .514 1.373 13.323 13.323 0 0 1 7.773-.477.733.733 0 1 0 .345-1.426ZM12.65 31.313A13.115 13.115 0 0 1 8.8 22a13.103 13.103 0 0 1 2.523-7.765.733.733 0 1 0-1.185-.863 14.667 14.667 0 0 0 1.472 18.98.735.735 0 0 0 1.04-1.039Z"/></g><defs><clipPath id="aia"><path d="M0 0h44v44H0z"/></clipPath></defs></symbol><symbol viewBox="0 0 11 21" id="facebook" xmlns="http://www.w3.org/2000/svg"><path d="M2.915 20.763v-9.631H.368V7.664h2.547V4.702C2.915 2.374 4.42.237 7.886.237c1.403 0 2.441.134 2.441.134l-.082 3.239S9.188 3.6 8.032 3.6c-1.25 0-1.45.575-1.45 1.532v2.532h3.763l-.164 3.468h-3.6v9.631H2.916Z"/></symbol><symbol viewBox="0 0 20 20" id="instagram" xmlns="http://www.w3.org/2000/svg"><path d="M9.984 6.762a3.258 3.258 0 0 0-3.25 3.251 3.258 3.258 0 0 0 3.25 3.252 3.258 3.258 0 0 0 3.252-3.252 3.258 3.258 0 0 0-3.252-3.251Zm9.752 3.251c0-1.346.012-2.68-.063-4.024-.076-1.561-.432-2.947-1.573-4.088C16.956.757 15.572.403 14.01.327 12.665.252 11.332.264 9.988.264c-1.347 0-2.68-.012-4.025.063-1.56.076-2.946.432-4.088 1.574C.73 3.045.377 4.428.301 5.989.225 7.335.238 8.669.238 10.013c0 1.344-.013 2.68.063 4.025.076 1.56.432 2.946 1.573 4.088 1.144 1.144 2.527 1.497 4.088 1.573 1.347.076 2.68.063 4.025.063 1.346 0 2.68.013 4.024-.063 1.562-.076 2.947-.432 4.088-1.573 1.145-1.144 1.498-2.527 1.574-4.088.078-1.344.063-2.678.063-4.025Zm-9.752 5.003a4.996 4.996 0 0 1-5.002-5.003A4.996 4.996 0 0 1 9.984 5.01a4.996 4.996 0 0 1 5.003 5.003 4.996 4.996 0 0 1-5.003 5.003Zm5.208-9.042a1.167 1.167 0 0 1-1.168-1.168 1.167 1.167 0 1 1 1.995.827 1.167 1.167 0 0 1-.827.341Z"/></symbol><symbol viewBox="0 0 24 24" id="location" xmlns="http://www.w3.org/2000/svg"><g fill-rule="evenodd" clip-rule="evenodd"><path d="M8.75 10.5a3.25 3.25 0 1 1 6.5 0 3.25 3.25 0 0 1-6.5 0ZM12 8.75a1.75 1.75 0 1 0 0 3.5 1.75 1.75 0 0 0 0-3.5Z"/><path d="M12 3.75c-3.723 0-6.75 3.045-6.75 6.813 0 2.394 1.43 4.829 3.111 6.721.83.934 1.691 1.703 2.407 2.233.359.265.67.462.912.589.185.096.286.128.32.139.033-.01.134-.043.319-.14a7.26 7.26 0 0 0 .912-.588 16.321 16.321 0 0 0 2.408-2.233c1.68-1.893 3.111-4.327 3.111-6.72 0-3.77-3.028-6.814-6.75-6.814Zm-8.25 6.813C3.75 5.978 7.437 2.25 12 2.25c4.562 0 8.25 3.728 8.25 8.313 0 2.942-1.72 5.726-3.49 7.717a17.81 17.81 0 0 1-2.637 2.442c-.4.297-.779.54-1.11.713-.295.154-.666.315-1.014.315-.347 0-.718-.16-1.013-.315a8.718 8.718 0 0 1-1.11-.712A17.813 17.813 0 0 1 7.24 18.28c-1.77-1.992-3.49-4.775-3.49-7.717Z"/></g></symbol><symbol viewBox="0 0 102 25" id="logo" xmlns="http://www.w3.org/2000/svg"><path d="M1.366 24.292a.764.764 0 0 1-.561-.231.764.764 0 0 1-.231-.561V2.017a.88.88 0 0 1 .198-.594.804.804 0 0 1 .594-.231h14.52c.242 0 .44.077.594.231a.804.804 0 0 1 .231.594v2.178c0 .242-.077.44-.231.594a.88.88 0 0 1-.594.198H5.029v5.841H15.16c.242 0 .44.077.594.231.154.132.231.319.231.561v2.046c0 .242-.077.44-.231.594a.88.88 0 0 1-.594.198H5.029v6.039H16.15c.242 0 .44.077.594.231a.804.804 0 0 1 .231.594V23.5c0 .242-.077.44-.231.594a.88.88 0 0 1-.594.198H1.366Z"/><path d="M23.544 24.292a.764.764 0 0 1-.56-.231.764.764 0 0 1-.232-.561V2.017a.88.88 0 0 1 .198-.594.804.804 0 0 1 .594-.231h14.322c.242 0 .44.077.594.231a.804.804 0 0 1 .231.594v2.31c0 .242-.077.44-.23.594a.88.88 0 0 1-.595.198H27.273v6.27h9.933c.242 0 .44.077.594.231a.804.804 0 0 1 .231.594v2.31c0 .242-.077.44-.23.594a.88.88 0 0 1-.595.198h-9.933V23.5c0 .242-.077.44-.23.594a.88.88 0 0 1-.595.198h-2.904Zm27.55.33c-2.575 0-4.566-.66-5.974-1.98-1.408-1.342-2.167-3.168-2.277-5.478l-.033-1.452.033-1.452c.11-2.288.88-4.103 2.31-5.445 1.43-1.342 3.41-2.013 5.94-2.013 2.53 0 4.51.671 5.94 2.013 1.43 1.342 2.2 3.157 2.31 5.445.022.264.033.748.033 1.452s-.01 1.188-.033 1.452c-.11 2.31-.869 4.136-2.277 5.478-1.408 1.32-3.399 1.98-5.973 1.98Zm0-3.267c1.165 0 2.067-.363 2.705-1.089.638-.748.99-1.837 1.056-3.267.022-.22.033-.649.033-1.287 0-.638-.01-1.067-.033-1.287-.066-1.43-.418-2.508-1.056-3.234-.638-.748-1.54-1.122-2.706-1.122s-2.068.374-2.706 1.122c-.638.726-.99 1.804-1.056 3.234l-.033 1.287.033 1.287c.066 1.43.418 2.519 1.056 3.267.638.726 1.54 1.089 2.706 1.089Zm21.179 3.267c-2.574 0-4.565-.66-5.973-1.98-1.408-1.342-2.167-3.168-2.277-5.478l-.033-1.452.033-1.452c.11-2.288.88-4.103 2.31-5.445 1.43-1.342 3.41-2.013 5.94-2.013 2.53 0 4.51.671 5.94 2.013 1.43 1.342 2.2 3.157 2.31 5.445.022.264.033.748.033 1.452s-.011 1.188-.033 1.452c-.11 2.31-.87 4.136-2.277 5.478-1.408 1.32-3.4 1.98-5.973 1.98Zm0-3.267c1.166 0 2.068-.363 2.706-1.089.638-.748.99-1.837 1.056-3.267.022-.22.033-.649.033-1.287 0-.638-.011-1.067-.033-1.287-.066-1.43-.418-2.508-1.056-3.234-.638-.748-1.54-1.122-2.706-1.122s-2.068.374-2.706 1.122c-.638.726-.99 1.804-1.056 3.234l-.033 1.287.033 1.287c.066 1.43.418 2.519 1.056 3.267.638.726 1.54 1.089 2.706 1.089Zm19.958 3.267c-2.222 0-3.927-.715-5.115-2.145-1.188-1.43-1.826-3.333-1.914-5.709l-.033-1.089.033-1.056c.066-2.31.693-4.191 1.881-5.643 1.21-1.452 2.926-2.178 5.148-2.178 2.134 0 3.828.726 5.082 2.178V1.654c0-.242.077-.429.231-.561a.764.764 0 0 1 .561-.231h2.805c.242 0 .429.077.561.231.154.132.231.319.231.561V23.5c0 .22-.077.407-.231.561-.132.154-.319.231-.561.231h-2.607a.764.764 0 0 1-.561-.231.764.764 0 0 1-.231-.561v-1.221c-1.254 1.562-3.014 2.343-5.28 2.343Zm1.221-3.531c1.276 0 2.222-.407 2.838-1.221.616-.814.957-1.815 1.023-3.003.022-.264.033-.693.033-1.287 0-.572-.011-.99-.033-1.254-.044-1.1-.396-2.035-1.056-2.805-.638-.792-1.573-1.188-2.805-1.188-2.376 0-3.641 1.463-3.795 4.389l-.033.99.033.99c.154 2.926 1.419 4.389 3.795 4.389Z" fill="#363853"/></symbol><symbol viewBox="0 0 24 24" id="menu" xmlns="http://www.w3.org/2000/svg"><path d="M21.84 7.05H7.45c-.41 0-.75-.34-.75-.75s.34-.75.75-.75h14.39c.41 0 .75.34.75.75s-.34.75-.75.75Zm0 4.2H2.16c-.41 0-.75.34-.75.75s.34.75.75.75h19.68c.41 0 .75-.34.75-.75s-.34-.75-.75-.75Zm0 7.2H11.69c-.41 0-.75-.34-.75-.75s.34-.75.75-.75h10.15c.41 0 .75.34.75.75s-.34.75-.75.75Z"/></symbol><symbol viewBox="0 0 32 32" xml:space="preserve" id="menu-close" xmlns="http://www.w3.org/2000/svg"><path d="M17.131 16 27.766 5.366a.8.8 0 1 0-1.132-1.131L16 14.869 5.366 4.235a.8.8 0 1 0-1.132 1.13L14.87 16 4.234 26.635a.8.8 0 1 0 1.132 1.13L16 17.132l10.634 10.635a.798.798 0 0 0 1.132 0 .8.8 0 0 0 0-1.131z"/></symbol><symbol viewBox="0 0 24 24" id="menu-trigger" xmlns="http://www.w3.org/2000/svg"><path d="M12 16.56 3.94 8.5 5 7.44l7 7 7-7 1.06 1.06L12 16.56z"/></symbol><symbol viewBox="0 0 24 24" id="message" xmlns="http://www.w3.org/2000/svg"><g fill-rule="evenodd" clip-rule="evenodd"><path d="M5.535 8.38a.75.75 0 0 1 1.054-.113l4.478 3.611a1.547 1.547 0 0 0 1.923.001l4.44-3.61a.75.75 0 1 1 .946 1.164l-4.444 3.613-.007.006a3.047 3.047 0 0 1-3.792 0l-.005-.004-4.48-3.613a.75.75 0 0 1-.113-1.055Z"/><path d="M1.25 8.57c0-3.397 2.302-6.32 5.841-6.32h9.818c3.539 0 5.841 2.923 5.841 6.32v6.868c0 3.396-2.302 6.321-5.842 6.312H7.092c-3.54.009-5.842-2.916-5.842-6.312V8.57Zm5.841-4.82c-2.544 0-4.341 2.074-4.341 4.82v6.868c0 2.747 1.798 4.819 4.34 4.812h9.821c2.541.007 4.339-2.065 4.339-4.812V8.57c0-2.746-1.797-4.82-4.341-4.82H7.09Z"/></g></symbol><symbol viewBox="0 0 17 21" id="pinterset" xmlns="http://www.w3.org/2000/svg"><path d="M.29 7.6c0-.888.155-1.726.46-2.509a6.422 6.422 0 0 1 1.28-2.055A8.685 8.685 0 0 1 3.903 1.52 8.57 8.57 0 0 1 6.188.557 9.776 9.776 0 0 1 8.68.237c1.3 0 2.509.274 3.63.822a6.868 6.868 0 0 1 2.727 2.389c.7 1.043 1.049 2.224 1.049 3.54 0 .79-.078 1.562-.237 2.317a9.442 9.442 0 0 1-.736 2.182 7.533 7.533 0 0 1-1.235 1.844 5.388 5.388 0 0 1-1.788 1.271 5.66 5.66 0 0 1-2.333.476 3.823 3.823 0 0 1-1.664-.395c-.55-.262-.945-.623-1.182-1.085-.083.32-.197.784-.349 1.39-.146.604-.244.994-.287 1.171-.046.176-.13.469-.254.875-.083.3-.19.594-.32.877l-.392.769a9.1 9.1 0 0 1-.569.956c-.206.299-.461.656-.766 1.066l-.17.06-.113-.122c-.122-1.293-.185-2.066-.185-2.322 0-.756.09-1.605.268-2.547.175-.94.45-2.124.822-3.546.37-1.421.582-2.257.64-2.505-.262-.533-.394-1.228-.394-2.084 0-.683.213-1.323.641-1.925.429-.6.97-.9 1.628-.9.503 0 .893.166 1.172.5.281.333.418.753.418 1.265 0 .543-.18 1.33-.543 2.357-.363 1.029-.543 1.797-.543 2.306 0 .517.185.95.554 1.288.365.34.847.523 1.345.512.452 0 .87-.102 1.26-.309.382-.2.714-.486.968-.836a6.985 6.985 0 0 0 1.16-2.538c.11-.481.194-.939.246-1.369.056-.432.08-.84.08-1.228 0-1.423-.451-2.531-1.35-3.325-.902-.794-2.076-1.189-3.522-1.189-1.643 0-3.018.532-4.119 1.598-1.101 1.063-1.656 2.415-1.656 4.054 0 .362.055.71.159 1.049.101.336.212.604.332.803.118.195.23.385.332.56.102.177.156.302.156.377 0 .23-.06.53-.183.901-.126.371-.276.556-.456.556-.017 0-.088-.013-.21-.039a2.521 2.521 0 0 1-1.118-.69 3.616 3.616 0 0 1-.751-1.166A7.968 7.968 0 0 1 .44 8.915 5.57 5.57 0 0 1 .29 7.6Z"/></symbol><symbol viewBox="0 0 57 58" id="pizza" xmlns="http://www.w3.org/2000/svg"><g clip-path="url(#asa)"><path d="M56.518 28.97a.78.78 0 0 1-.447.7L24.945 44.436a4.27 4.27 0 0 1-2.518 2.953 4.279 4.279 0 0 1-5.584-2.313 41.892 41.892 0 0 1-3.204-16.11 41.89 41.89 0 0 1 3.204-16.11c.22-.533.538-.998.922-1.383a4.28 4.28 0 0 1 4.662-.93 4.26 4.26 0 0 1 2.33 2.363L56.08 28.264c.27.132.44.406.438.706ZM28.485 41.026l3.299-1.565a1.988 1.988 0 0 0-2.25-1.91c-.528.07-.996.34-1.32.763a1.978 1.978 0 0 0-.395 1.472c.064.486.3.922.666 1.24Zm-6.656-29.04a2.714 2.714 0 0 0-3.542 1.467c-4.144 10.003-4.144 21.021 0 31.024.277.67.798 1.19 1.467 1.467a2.693 2.693 0 0 0 2.075 0 2.693 2.693 0 0 0 1.467-1.467 2.693 2.693 0 0 0 0-2.075 34.939 34.939 0 0 1-2.673-13.437c0-4.635.9-9.155 2.673-13.437a2.714 2.714 0 0 0-1.467-3.542Zm21.66 11.844a1.978 1.978 0 0 0-.534 1.633 1.994 1.994 0 0 0 3.554.952 1.99 1.99 0 0 0 .388-.914l-3.408-1.67Zm4.849 2.378a3.553 3.553 0 0 1-5.572 1.814 3.53 3.53 0 0 1-1.36-2.355c-.12-.907.109-1.805.642-2.543L37.74 21.01l-.294 2.232a.781.781 0 0 1-1.55-.204l.363-2.754-11.206-5.494a4.253 4.253 0 0 1-.313 1.334c-3.43 8.28-3.43 17.4 0 25.68.119.287.203.58.257.876l2.006-.952a3.532 3.532 0 0 1-.733-1.74 3.53 3.53 0 0 1 1.016-2.982c.55-.55 1.26-.901 2.044-1.004a3.548 3.548 0 0 1 3.933 2.757l9.315-4.419-.368-.888a.782.782 0 0 1 1.444-.598l.338.816 9.946-4.718-5.6-2.745Z"/><path d="m19.702 36.464.004.02a.78.78 0 0 1-1.532.307.78.78 0 0 1 1.528-.327ZM20.235 38.676c.405 1.482.909 2.954 1.497 4.374a.781.781 0 0 1-1.443.598 38.525 38.525 0 0 1-1.561-4.56.78.78 0 1 1 1.507-.412ZM38.773 32.892a3.562 3.562 0 0 1-4.983.656 3.558 3.558 0 0 1-.347-5.335 3.562 3.562 0 0 1 4.674-.303 3.558 3.558 0 0 1 .656 4.982Zm-1.607-3.743a1.995 1.995 0 0 0-2.792.368 1.994 1.994 0 0 0 .368 2.792 1.995 1.995 0 0 0 2.792-.368 1.994 1.994 0 0 0-.368-2.792ZM31.758 26.165a3.562 3.562 0 0 1-4.983.656 3.53 3.53 0 0 1-1.36-2.356 3.531 3.531 0 0 1 1.013-2.98 3.562 3.562 0 0 1 4.674-.303 3.558 3.558 0 0 1 .656 4.983Zm-1.607-3.743a1.995 1.995 0 0 0-2.792.367 1.98 1.98 0 0 0-.395 1.472c.07.528.34.996.762 1.32a1.995 1.995 0 0 0 2.792-.367 1.994 1.994 0 0 0-.367-2.792ZM30.403 32.097l-1.474 1.921a.78.78 0 1 1-1.24-.95l1.474-1.922a.781.781 0 0 1 1.24.951ZM25.465 28.881l.99 1.29a.781.781 0 1 1-1.24.95l-.99-1.289a.781.781 0 0 1 1.24-.95Z"/></g><defs><clipPath id="asa"><path transform="scale(1 -1) rotate(45 83.385 5.846)" d="M0 0h40v40H0z"/></clipPath></defs></symbol><symbol viewBox="0 0 24 24" id="quote-end" xmlns="http://www.w3.org/2000/svg"><path d="M19.4 4.211c-.533-.724-1.067-1.114-1.6-1.17-.587-.11-1.067 0-1.44.335-.427.278-.667.724-.72 1.336-.053.613.187 1.281.72 2.005.853 1.17 1.467 2.367 1.84 3.592.32 1.169.48 2.255.48 3.257l.24-1.67c-1.387 0-2.507.417-3.36 1.252-.853.78-1.28 1.866-1.28 3.258 0 1.337.4 2.45 1.2 3.341.8.835 1.84 1.253 3.12 1.253 1.387 0 2.48-.473 3.28-1.42.747-1.002 1.12-2.422 1.12-4.26 0-1.17-.08-2.366-.24-3.591a17.432 17.432 0 0 0-1.12-3.843 18.703 18.703 0 0 0-2.24-3.675Zm-13.28 0c-.533-.724-1.067-1.114-1.6-1.17-.587-.11-1.067 0-1.44.335-.427.278-.667.724-.72 1.336-.053.613.187 1.281.72 2.005.853 1.17 1.467 2.367 1.84 3.592.32 1.169.48 2.255.48 3.257l.24-1.67c-1.387 0-2.507.417-3.36 1.252-.853.78-1.28 1.866-1.28 3.258 0 1.337.4 2.45 1.2 3.341C3 20.582 4.04 21 5.32 21c1.387 0 2.48-.473 3.28-1.42.747-1.002 1.12-2.422 1.12-4.26 0-1.17-.08-2.366-.24-3.591a17.432 17.432 0 0 0-1.12-3.843 18.703 18.703 0 0 0-2.24-3.675Z"/></symbol><symbol viewBox="0 0 24 24" id="quote-start" xmlns="http://www.w3.org/2000/svg"><path d="M4.6 4.211c.533-.724 1.067-1.114 1.6-1.17.587-.11 1.067 0 1.44.335.427.278.667.724.72 1.336.053.613-.187 1.281-.72 2.005-.853 1.17-1.467 2.367-1.84 3.592-.32 1.169-.48 2.255-.48 3.257l-.24-1.67c1.387 0 2.507.417 3.36 1.252.853.78 1.28 1.866 1.28 3.258 0 1.337-.4 2.45-1.2 3.341C7.72 20.582 6.68 21 5.4 21c-1.387 0-2.48-.473-3.28-1.42C1.373 18.578 1 17.158 1 15.32c0-1.17.08-2.366.24-3.591.213-1.281.587-2.562 1.12-3.843A18.703 18.703 0 0 1 4.6 4.211Zm13.28 0c.533-.724 1.067-1.114 1.6-1.17.587-.11 1.067 0 1.44.335.427.278.667.724.72 1.336.053.613-.187 1.281-.72 2.005-.853 1.17-1.467 2.367-1.84 3.592-.32 1.169-.48 2.255-.48 3.257l-.24-1.67c1.387 0 2.507.417 3.36 1.252.853.78 1.28 1.866 1.28 3.258 0 1.337-.4 2.45-1.2 3.341C21 20.582 19.96 21 18.68 21c-1.387 0-2.48-.473-3.28-1.42-.747-1.002-1.12-2.422-1.12-4.26 0-1.17.08-2.366.24-3.591.213-1.281.587-2.562 1.12-3.843a18.703 18.703 0 0 1 2.24-3.675Z"/></symbol><symbol viewBox="0 0 44 44" id="sandwich" xmlns="http://www.w3.org/2000/svg"><g clip-path="url(#ava)"><path d="M41.8 6.6h-1.467V5.133a2.2 2.2 0 0 0-2.2-2.2h-1.747L35.326.811A1.457 1.457 0 0 0 34.012 0H33c-.81 0-1.467.657-1.467 1.467v1.466h-8.066a2.2 2.2 0 0 0-2.2 2.2V6.6H19.8a2.2 2.2 0 0 0-2.2 2.2v1.467c0 .81.657 1.466 1.467 1.466h.078l.858 7.577-3.534-.83a11.125 11.125 0 0 0-.576-.813L14.646 12.3a.733.733 0 0 0-.713-.568H9.72C7.732 9.981 5.382 9.19 3.61 9.711L2.532 8.537a1.448 1.448 0 0 0-1.605-.366c-.56.216-.93.755-.928 1.355v32.289A2.188 2.188 0 0 0 2.185 44h35.948c.373 0 .686-.28.728-.65l3.593-31.617h.08c.81 0 1.466-.657 1.466-1.466V8.8a2.2 2.2 0 0 0-2.2-2.2ZM33 1.467h1.014l.733 1.466H33V1.467ZM22.733 5.133c0-.405.329-.733.734-.733h14.666c.405 0 .734.328.734.733V6.6H22.733V5.133Zm-2.053 15.84.046.009.593.14.397 4.162a6.758 6.758 0 0 0-3.94-1.242 6.278 6.278 0 0 0-.411-3.848l3.315.78Zm1.433 6.487.01.008c.265.245.517.505.755.778a8.687 8.687 0 0 1 1.876 3.388c.124.437.188.89.19 1.344l-6.849-7.47c1.523.17 2.942.86 4.018 1.952Zm-7.728-9.32v-.002c1.583 1.819 2.32 4.003 1.97 5.472l-7.463-8.137c1.505-.336 3.795.721 5.493 2.667Zm-1.038-4.94.586 2.497a9.348 9.348 0 0 0-1.913-1.154 11.57 11.57 0 0 0-.928-1.343h2.255Zm-3.687.546h.003c.061.07.11.146.17.22a3.99 3.99 0 0 0-2.012.338l-3.015-3.288c1.474.021 3.398 1.058 4.854 2.73Zm21.077 28.356a.717.717 0 0 1-.656.431H2.185a.719.719 0 0 1-.718-.718L1.453 9.533l14.72 16.048v.004l8.644 9.424.01.011 4.741 5.172c.017.022.034.044.053.065l.984 1.072a.716.716 0 0 1 .132.773Zm-4.54-7.757c.135-.438.203-.894.203-1.352.385.325.744.68 1.074 1.061a9.7 9.7 0 0 1 1.086 1.513c.428.72.73 1.507.895 2.329l-3.257-3.551Zm11.281 8.188h-5.342c.275-.76.1-1.61-.45-2.2l-.74-.806a6.691 6.691 0 0 0-.571-3.594h7.854l-.75 6.6Zm.917-8.066h-8.8a11.239 11.239 0 0 0-1.009-1.375 10.692 10.692 0 0 0-2.512-2.136 10.145 10.145 0 0 0-2.09-3.676c-.22-.25-.44-.482-.671-.706l-.58-6.11a.733.733 0 0 0-.56-.644l-.65-.154-.154-1.333h18.86l-1.834 16.134Zm2-17.6H21.203l-.58-5.134h20.357l-.583 5.134Zm2.138-6.6H19.067V8.8c0-.405.328-.733.733-.733h22c.405 0 .733.328.733.733v1.467Z"/><path d="M31.1 32.267c.042 0 .083-.006.124-.008.011 0 .023.008.034.008a.704.704 0 0 0 .109-.016 3.966 3.966 0 0 0 2.899-1.568 5.1 5.1 0 0 0 .714-4.474c-.102-.38-.195-.753-.285-1.113-.572-2.293-1.119-4.456-3.435-4.553-.024 0-.046-.004-.07-.004-.023 0-.057-.006-.09-.006-2.591 0-4.7 2.632-4.7 5.867s2.109 5.867 4.7 5.867Zm.568-10.157c.758.298 1.092 1.291 1.604 3.341.092.367.187.751.293 1.14a3.656 3.656 0 0 1-.464 3.2 2.592 2.592 0 0 1-.876.734 10.656 10.656 0 0 0-.733-3.68c-.073-.23-.147-.45-.211-.66-.427-1.389.073-3.188.387-4.075Zm-1.576.11a8.049 8.049 0 0 0-.212 4.393c.068.22.143.448.22.685.367 1.12.807 2.472.627 3.468-1.607-.25-2.86-2.112-2.86-4.366 0-1.947.935-3.6 2.225-4.18ZM3.881 38.563l-.518.518A.733.733 0 1 0 4.4 40.118l.518-.518a.733.733 0 0 0-1.037-1.037ZM10.893 33.626a.734.734 0 0 0-1.038-1.037l-.518.518a.733.733 0 1 0 1.037 1.038l.519-.519ZM4.4 31.748l-.519.519a.733.733 0 1 0 1.037 1.037l.519-.519A.733.733 0 0 0 4.4 31.748ZM4.4 26.615l-.519.518a.733.733 0 1 0 1.037 1.037l.519-.518A.733.733 0 0 0 4.4 26.615ZM11 38.563l-.518.518a.734.734 0 1 0 1.037 1.037l.518-.518A.733.733 0 0 0 11 38.563ZM16.348 38.563l-.518.519a.733.733 0 1 0 1.037 1.036l.518-.518a.733.733 0 0 0-1.037-1.037Z"/></g><defs><clipPath id="ava"><path d="M0 0h44v44H0z"/></clipPath></defs></symbol><symbol viewBox="0 0 24 24" id="search" xmlns="http://www.w3.org/2000/svg"><g fill-rule="evenodd" clip-rule="evenodd"><path d="M11.767 3.528a8.239 8.239 0 1 0 0 16.477 8.239 8.239 0 0 0 0-16.477Zm-9.739 8.239c0-5.379 4.36-9.739 9.739-9.739 5.378 0 9.738 4.36 9.738 9.739 0 5.378-4.36 9.738-9.738 9.738-5.379 0-9.739-4.36-9.739-9.738Z"/><path d="M17.487 17.956a.75.75 0 0 1 1.061-.002l3.524 3.515a.75.75 0 1 1-1.06 1.062l-3.523-3.515a.75.75 0 0 1-.002-1.06Z"/></g></symbol><symbol fill="none" viewBox="0 0 28 28" id="shop" xmlns="http://www.w3.org/2000/svg"><g clip-path="url(#axa)"><path d="M26.688 23.188h-3.063v-8.79a1.904 1.904 0 0 0 1.392-2.546L23.625 8.23V1.313a.437.437 0 0 0-.438-.438H4.813a.437.437 0 0 0-.437.438V8.23l-1.392 3.62A1.902 1.902 0 0 0 4.375 14.4v8.789H1.312a.437.437 0 0 0-.437.437v3.063a.437.437 0 0 0 .438.437h25.375a.437.437 0 0 0 .437-.438v-3.062a.437.437 0 0 0-.438-.438Zm-4.813 0v-9.332a1.9 1.9 0 0 0 .875.516v8.816h-.875Zm-3.5.437v2.625h-1.75v-3.063h.875a.438.438 0 0 0 .438-.437v-1.313A.438.438 0 0 0 17.5 21h-2.625a.438.438 0 0 0-.438.438v1.312a.438.438 0 0 0 .438.438h.875v3.062H14v-2.625a.437.437 0 0 0-.438-.438h-.874v-1.312a.437.437 0 0 0-.438-.438h-.875v-7.04a1.902 1.902 0 0 0 1.081-.651 1.883 1.883 0 0 0 1.467.692h.154a1.885 1.885 0 0 0 1.467-.692c.063.076.132.147.206.213v1.354a2.19 2.19 0 0 0-2.188 2.187.437.437 0 0 0 .438.438h4.375a.437.437 0 0 0 .438-.438 2.19 2.19 0 0 0-2.188-2.188v-.914c.127.026.257.04.387.04h.136a1.901 1.901 0 0 0 1.484-.713 1.896 1.896 0 0 0 1.486.713h.085c.275 0 .547-.059.797-.173v7.172h-.875a.437.437 0 0 0-.438.438v1.313h-.875a.437.437 0 0 0-.437.437Zm-3.063-1.313v-.437h1.75v.438h-1.75ZM6.806 12.265l.966-3.515h1.776l-.652 3.952a1.024 1.024 0 0 1-1.013.86h-.085a1.028 1.028 0 0 1-.992-1.297Zm.195 2c.25.114.522.173.797.172h.085a1.895 1.895 0 0 0 1.486-.711l.033.04c.282.333.67.558 1.099.639v2.22H7v-2.36Zm3.852-.703a1.026 1.026 0 0 1-1.014-1.194l.596-3.618h1.791l-.21 3.841a1.027 1.027 0 0 1-1.027.972h-.136Zm3.971-.32a1.017 1.017 0 0 1-.746.32h-.154a1.026 1.026 0 0 1-1.026-1.08l.204-3.732h1.797l.205 3.729v.002a1.014 1.014 0 0 1-.28.76Zm1.163-.65-.211-3.842h1.791l.596 3.618a1.029 1.029 0 0 1-1.014 1.194h-.136a1.027 1.027 0 0 1-1.026-.97Zm.639 3.595a1.314 1.314 0 0 1 1.238.875h-3.35a1.315 1.315 0 0 1 1.237-.875h.875Zm4.395-3.03a1.02 1.02 0 0 1-.817.405h-.085a1.024 1.024 0 0 1-1.013-.86l-.652-3.952h1.776l.965 3.513v.002a1.023 1.023 0 0 1-.174.893Zm-.457 9.155H21v.875h-.438v-.875ZM24.2 12.166a1.028 1.028 0 1 1-1.95.641L21.136 8.75h1.751l1.314 3.416ZM5.25 1.75h17.5v6.125H5.25V1.75ZM3.911 13.117a1.014 1.014 0 0 1-.112-.951L5.113 8.75h1.75L5.75 12.807a1.03 1.03 0 0 1-1.47.639 1.013 1.013 0 0 1-.368-.33Zm1.339 1.255a1.9 1.9 0 0 0 .875-.516v9.332H5.25v-8.816Zm3.5 11.878h-7v-2.188h7v2.188Zm.438-3.063H7V17.5h3.5v8.75h-.875v-2.625a.437.437 0 0 0-.438-.438Zm2.187-.875h.438v1.313a.437.437 0 0 0 .437.438h.875v2.187h-1.75v-3.938ZM26.25 26.25h-7v-2.188h7v2.188Z" fill="url(#axb)"/><path d="M17.063 5.25h-.475a2.63 2.63 0 0 0-2.15-2.15v-.475a.438.438 0 0 0-.876 0V3.1a2.63 2.63 0 0 0-2.15 2.15h-.475a.438.438 0 0 0-.437.438 1.752 1.752 0 0 0 1.75 1.75h3.5a1.752 1.752 0 0 0 1.75-1.75.438.438 0 0 0-.438-.438ZM14 3.937a1.753 1.753 0 0 1 1.695 1.313h-3.39A1.753 1.753 0 0 1 14 3.937Zm1.75 2.626h-3.5a.875.875 0 0 1-.758-.438h5.016a.876.876 0 0 1-.758.438Z" fill="url(#axc)"/><path d="M10.743 4.302a.438.438 0 0 0 .194-.364V2.625h-.874v1.063c-.14.07-.286.124-.438.16V2.625H8.75v1.223a1.927 1.927 0 0 1-.438-.16V2.625h-.874v1.313a.437.437 0 0 0 .194.364c.337.224.718.374 1.118.437v2.699h.875V4.739c.4-.063.781-.213 1.118-.437Z" fill="url(#axd)"/><path d="M18.812 2.188a1.75 1.75 0 0 0-.437 3.444v1.806h.875V5.631a1.75 1.75 0 0 0-.438-3.444Zm0 2.624a.875.875 0 1 1 0-1.75.875.875 0 0 1 0 1.75Z" fill="url(#axe)"/></g><defs><linearGradient id="axb" x1=".875" y1="13.125" x2="26.496" y2="13.239" gradientUnits="userSpaceOnUse"><stop stop-color="#FF5050"/><stop offset="1" stop-color="#FF7070" stop-opacity=".84"/></linearGradient><linearGradient id="axc" x1="10.5" y1="4.638" x2="17.332" y2="4.678" gradientUnits="userSpaceOnUse"><stop stop-color="#FF5050"/><stop offset="1" stop-color="#FF7070" stop-opacity=".84"/></linearGradient><linearGradient id="axd" x1="7.438" y1="4.871" x2="10.854" y2="4.882" gradientUnits="userSpaceOnUse"><stop stop-color="#FF5050"/><stop offset="1" stop-color="#FF7070" stop-opacity=".84"/></linearGradient><linearGradient id="axe" x1="17.062" y1="4.638" x2="20.479" y2="4.648" gradientUnits="userSpaceOnUse"><stop stop-color="#FF5050"/><stop offset="1" stop-color="#FF7070" stop-opacity=".84"/></linearGradient><clipPath id="axa"><path fill="#fff" d="M0 0h28v28H0z"/></clipPath></defs></symbol><symbol viewBox="0 0 32 32" id="slider-next" xmlns="http://www.w3.org/2000/svg"><path fill-rule="evenodd" clip-rule="evenodd" d="M4 16a1 1 0 0 1 1-1h22a1 1 0 1 1 0 2H5a1 1 0 0 1-1-1Z"/><path fill-rule="evenodd" clip-rule="evenodd" d="M17.293 6.293a1 1 0 0 1 1.414 0l9 9a1 1 0 0 1 0 1.414l-9 9a1 1 0 0 1-1.414-1.414L25.586 16l-8.293-8.293a1 1 0 0 1 0-1.414Z"/></symbol><symbol viewBox="0 0 32 32" id="slider-prev" xmlns="http://www.w3.org/2000/svg"><path fill-rule="evenodd" clip-rule="evenodd" d="M4 16a1 1 0 0 1 1-1h22a1 1 0 1 1 0 2H5a1 1 0 0 1-1-1Z"/><path fill-rule="evenodd" clip-rule="evenodd" d="M14.707 6.293a1 1 0 0 1 0 1.414L6.414 16l8.293 8.293a1 1 0 0 1-1.414 1.414l-9-9a1 1 0 0 1 0-1.414l9-9a1 1 0 0 1 1.414 0Z"/></symbol><symbol viewBox="0 0 20 20" id="star" xmlns="http://www.w3.org/2000/svg"><path d="m10.92 2.53 2.12 3.77c.16.27.45.46.8.5l4.75.61c.28.03.53.16.7.36.17.2.24.44.2.69a.86.86 0 0 1-.31.53l-3.44 2.96c-.25.21-.37.51-.31.81l.85 4.16c.09.5-.29.98-.85 1.07-.23.03-.47 0-.68-.1l-4.24-1.96c-.31-.14-.69-.14-1 0l-4.24 1.96c-.52.25-1.17.08-1.46-.38-.11-.18-.15-.39-.11-.59l.85-4.16c.06-.3-.05-.61-.31-.81L.81 9a.844.844 0 0 1-.03-1.29s.02-.02.03-.02c.16-.15.38-.24.61-.27l4.75-.61c.34-.04.64-.23.8-.51l2.04-3.78c.18-.32.56-.52.97-.52h.13c.35.04.66.23.82.52"/></symbol><symbol viewBox="0 0 34 34" id="stopwatch" xmlns="http://www.w3.org/2000/svg"><g clip-path="url(#bba)"><path d="m31.754 12.881.996-.996c.288-.288.447-.67.447-1.078 0-.407-.159-.79-.447-1.077l-1.14-1.141a1.514 1.514 0 0 0-1.078-.447c-.407 0-.79.159-1.078.447l-.996.996a12.7 12.7 0 0 0-4.412-1.933V6.179h.606a1.49 1.49 0 0 0 1.488-1.488v-2.07a1.49 1.49 0 0 0-1.488-1.488H17.8a1.49 1.49 0 0 0-1.488 1.488v2.07c0 .82.668 1.488 1.488 1.488h.606v1.477a12.703 12.703 0 0 0-4.392 1.929l-.996-.996a1.514 1.514 0 0 0-1.078-.447c-.407 0-.79.159-1.078.447l-1.14 1.14a1.526 1.526 0 0 0 0 2.156l.176.177H5.19a.664.664 0 0 0 0 1.328h5.193a12.713 12.713 0 0 0-1.215 2.552H.664a.664.664 0 0 0 0 1.328H8.79a12.747 12.747 0 0 0-.314 2.553H4.25a.664.664 0 0 0 0 1.328h4.265c.072.879.233 1.733.474 2.552H3.32a.664.664 0 0 0 0 1.329h6.142c1.932 4.598 6.482 7.835 11.774 7.835C28.274 32.867 34 27.142 34 20.104c0-2.678-.83-5.167-2.246-7.222Zm-1.36-3.353a.192.192 0 0 1 .138-.058c.037 0 .091.01.139.058l1.14 1.14a.193.193 0 0 1 .058.14c0 .037-.01.09-.058.138l-.873.873c-.435-.509-.91-.983-1.418-1.418l.873-.873ZM17.64 4.69v-2.07a.16.16 0 0 1 .16-.16h6.852a.16.16 0 0 1 .16.16v2.07a.16.16 0 0 1-.16.16H17.8a.16.16 0 0 1-.16-.16Zm2.095 1.488h2.983v1.247a12.835 12.835 0 0 0-2.983.002V6.179Zm-9.075 4.49 1.141-1.141a.192.192 0 0 1 .139-.058c.037 0 .091.01.139.058l.873.873c-.51.435-.983.91-1.418 1.418l-.874-.873a.196.196 0 0 1 0-.277Zm10.576 20.87C14.93 31.54 9.8 26.41 9.8 20.103S14.93 8.667 21.236 8.667s11.436 5.13 11.436 11.436-5.13 11.436-11.436 11.436Z"/><path d="m25.619 14.781-3.14 3.14a2.498 2.498 0 0 0-1.243-.331 2.517 2.517 0 0 0-2.514 2.513 2.517 2.517 0 0 0 2.514 2.514 2.516 2.516 0 0 0 2.514-2.514c0-.452-.121-.877-.331-1.244l3.139-3.139a.664.664 0 0 0-.94-.939Zm-4.383 6.508a1.187 1.187 0 0 1-1.186-1.186 1.187 1.187 0 0 1 2.371 0c0 .654-.531 1.186-1.185 1.186ZM21.236 11.494a.669.669 0 0 0 .47-.195.67.67 0 0 0 .194-.47.669.669 0 0 0-.664-.664.67.67 0 0 0-.47.195.668.668 0 0 0 .47 1.134ZM21.236 28.713a.669.669 0 0 0-.47.194.668.668 0 0 0 .47 1.134.666.666 0 0 0 .664-.664.669.669 0 0 0-.194-.47.669.669 0 0 0-.47-.194ZM14.678 12.882a.67.67 0 0 0-.47.194.67.67 0 0 0-.194.47.67.67 0 0 0 .195.47.669.669 0 0 0 .939 0 .67.67 0 0 0 .194-.47.67.67 0 0 0-.194-.47.669.669 0 0 0-.47-.194ZM27.794 25.997a.67.67 0 0 0-.47.194.668.668 0 0 0 0 .94.669.669 0 0 0 .94 0 .67.67 0 0 0 .194-.47.669.669 0 0 0-.664-.664ZM14.678 25.997a.67.67 0 0 0-.47.194.669.669 0 0 0-.194.47.67.67 0 0 0 .195.47.67.67 0 0 0 .47.194.669.669 0 0 0 .469-.195.67.67 0 0 0 .194-.47.67.67 0 0 0-.194-.469.67.67 0 0 0-.47-.194ZM11.962 19.44a.667.667 0 0 0-.664.663.666.666 0 0 0 .664.664.666.666 0 0 0 .665-.664.669.669 0 0 0-.665-.664ZM30.98 19.634a.667.667 0 0 0-1.134.47.668.668 0 0 0 .664.663.669.669 0 0 0 .47-.194.67.67 0 0 0 .194-.47.67.67 0 0 0-.195-.47ZM.664 23.704a.669.669 0 0 0-.47.194.67.67 0 0 0-.194.47.67.67 0 0 0 .195.47.67.67 0 0 0 .47.194.669.669 0 0 0 .468-.195.67.67 0 0 0 .195-.47.67.67 0 0 0-.195-.47.668.668 0 0 0-.469-.193Z"/><path d="M30.314 18.087a.664.664 0 0 0 .447-.826 9.964 9.964 0 0 0-6.704-6.689.664.664 0 1 0-.376 1.274 8.576 8.576 0 0 1 5.807 5.794.664.664 0 0 0 .826.447Z"/></g><defs><clipPath id="bba"><path d="M0 0h34v34H0z"/></clipPath></defs></symbol><symbol viewBox="0 0 17 16" id="subscribe" xmlns="http://www.w3.org/2000/svg"><path d="M10.525 14.3a.651.651 0 0 1-.582-.36l-1.929-3.858a.652.652 0 0 1 .047-.66L11.175 5.2 6.953 8.314a.653.653 0 0 1-.66.046L2.433 6.432A.651.651 0 0 1 2.5 5.24L14.85.69a.652.652 0 0 1 .835.835l-4.55 12.35a.649.649 0 0 1-.574.424l-.036.001Z"/></symbol><symbol viewBox="0 0 22 22" id="timer" xmlns="http://www.w3.org/2000/svg"><g opacity=".9"><path d="M11.575 2.54v-.959a.611.611 0 0 0-1.222 0v.965c-4.803.333-8.609 4.344-8.609 9.23 0 5.102 4.153 9.254 9.256 9.254 5.103 0 9.256-4.152 9.256-9.255 0-4.91-3.845-8.937-8.681-9.235ZM11 19.808c-4.43 0-8.033-3.604-8.033-8.033 0-4.43 3.603-8.033 8.033-8.033s8.033 3.604 8.033 8.033c0 4.429-3.603 8.033-8.033 8.033Z"/><path d="M7.863 17.322a6.39 6.39 0 0 1-3.234-5.547.305.305 0 1 0-.611 0 7.004 7.004 0 0 0 3.544 6.079.306.306 0 0 0 .3-.532ZM9.53 18.16a6.839 6.839 0 0 1-.353-.102.305.305 0 0 0-.186.582c.127.04.255.078.385.11a.305.305 0 0 0 .153-.59ZM18.885 5.728a.611.611 0 0 0 .863-.865L18.162 3.28a.61.61 0 1 0-.863.865l1.586 1.583ZM11.575 11.661V6.776a.611.611 0 0 0-1.223 0v5.15c0 .168.088.328.21.443l1.789 1.672a.61.61 0 0 0 .657.117.61.61 0 0 0 .163-1.006l-1.596-1.49Z"/></g></symbol><symbol viewBox="0 0 21 17" id="twitter" xmlns="http://www.w3.org/2000/svg"><path d="M20.763 2.27a8.436 8.436 0 0 1-2.422.652 4.196 4.196 0 0 0 1.85-2.32 8.304 8.304 0 0 1-2.67 1.017A4.196 4.196 0 0 0 14.449.29a4.205 4.205 0 0 0-4.206 4.209c0 .326.04.651.104.964A11.954 11.954 0 0 1 1.673 1.06 4.177 4.177 0 0 0 1.1 3.183c0 1.46.743 2.748 1.875 3.505a4.243 4.243 0 0 1-1.902-.535v.052a4.207 4.207 0 0 0 3.372 4.13 4.456 4.456 0 0 1-1.107.142c-.274 0-.533-.027-.795-.064a4.214 4.214 0 0 0 3.932 2.919 8.43 8.43 0 0 1-5.222 1.798c-.353 0-.678-.013-1.016-.052a11.911 11.911 0 0 0 6.46 1.887c7.736 0 11.97-6.409 11.97-11.971 0-.183 0-.365-.013-.548a9.06 9.06 0 0 0 2.11-2.176Z"/></symbol></svg>